{"title":"The Whole Nine Yards 2000 DVDrip English Klam","uid":6661047,"size":1399396271,"categoryP":"video","categoryS":"movies","magnet":"?xt=urn:btih:ba1843ead8a2a86f538c0038f5073c5ec471b050&amp;dn=The+Whole+Nine+Yards+2000+DVDrip+English+Klam&amp;tr=udp%3A%2F%2Ftracker.openbittorrent.com%3A80&amp;tr=udp%3A%2F%2Fopen.demonii.com%3A1337&amp;tr=udp%3A%2F%2Ftracker.coppersurfer.tk%3A6969&amp;tr=udp%3A%2F%2Fexodus.desync.com%3A6969","seeders":1,"leechers":0,"uploader":"Klambake","files":-1,"time":1315509570,"description":"With: Bruce Willis, Matthew Perry and Amanda Peet\n\nTandarts Nicholas &quot;Oz&quot; Oseransky heeft het moeilijk om het hoofd boven water te houden en bovendien zit zijn huwelijk in het slop. Op een dag krijgt hij een nieuwe buur. Wanneer hij met de man wil gaan kennismaken, ontdekt Nicholas dat die niemand minder is dan Jimmy &quot;The Tulip&quot; Tudeski, een beruchte beroepsmoordenaar. Hij gaat, op aandringen van z'n vrouw, naar Chicago om een maffiabaas hierover te informeren en hiervoor hopelijk een premie op te strijken.\n\nNick is a struggling dentist in Canada. A new neighbor moves in, and he discovers that it is Jimmy &quot;The Tulip&quot; Teduski. His wife convinces him to go to Chicago and inform the mob boss who wants Jimmy dead. \n\n------------------ Dutch Friends ------------------\nYou can find my Friends at: http://www.Film-Test.nl \n------ They got my dutchs subs ---- and more ------\n\nGeneral:\n\nComplete name                    : The Whole Nine Yards\\The Whole Nine Yards.avi\nFormat                           : AVI\nFormat/Info                      : Audio Video Interleave\nFile size                        : 1.30 GiB\nDuration                         : 1h 34mn\nOverall bit rate                 : 1 971 Kbps\n\nVideo:\n\nFormat                           : MPEG-4 Visual\nFormat profile                   : Simple@L3\nFormat settings, BVOP            : No\nFormat settings, QPel            : No\nFormat settings, GMC             : No warppoints\nFormat settings, Matrix          : Default (H.263)\nCodec ID                         : XVID\nCodec ID/Hint                    : XviD\nDuration                         : 1h 34mn\nBit rate                         : 1 576 Kbps\nWidth                            : 652 pixels\nHeight                           : 352 pixels\nDisplay aspect ratio             : 1.852\nFrame rate                       : 25.000 fps\nColor space                      : YUV\nChroma subsampling               : 4:2:0\nBit depth                        : 8 bits\nScan type                        : Progressive\nBits/(Pixel*Frame)               : 0.275\nStream size                      : 1.04 GiB (80%)\nWriting library                  : XviD 1.1.2 (UTC 2006-11-01)\n\nAudio:\n\nFormat                           : AC-3\nFormat/Info                      : Audio Coding 3\nMode extension                   : CM (complete main)\nCodec ID                         : 2000\nDuration                         : 1h 34mn\nBit rate mode                    : Constant\nBit rate                         : 384 Kbps\nChannel(s)                       : 6 channels\nChannel positions                : Front: L C R, Side: L R, LFE\nSampling rate                    : 48.0 KHz\nBit depth                        : 16 bits\nStream size                      : 260 MiB (19%)\nAlignment                        : Aligned on interleaves\nInterleave, duration             : 32 ms (0.80 video frame)\nInterleave, preload duration     : 32 ms\n\n\n","torrent":{"xt":"urn:btih:ba1843ead8a2a86f538c0038f5073c5ec471b050","amp;dn":"The+Whole+Nine+Yards+2000+DVDrip+English+Klam","amp;tr":["udp%3A%2F%2Ftracker.openbittorrent.com%3A80","udp%3A%2F%2Fopen.demonii.com%3A1337","udp%3A%2F%2Ftracker.coppersurfer.tk%3A6969","udp%3A%2F%2Fexodus.desync.com%3A6969"],"infoHash":"ba1843ead8a2a86f538c0038f5073c5ec471b050","infoHashBuffer":{"type":"Buffer","data":[186,24,67,234,216,162,168,111,83,140,0,56,245,7,60,94,196,113,176,80]},"announce":[],"urlList":[]}}